<svg xmlns="http://www.w3.org/2000/svg" viewBox="0 0 360 60" width="360" height="60">
  <!-- خلفية شريط التنقل -->
  <rect width="360" height="60" fill="#ffffff" stroke="#e0e0e0" stroke-width="1" />
  
  <!-- عنصر الرئيسية -->
  <g class="nav-item active">
    <circle cx="60" cy="20" r="18" fill="#E3F2FD" />
    <path d="M60,10 L50,18 L50,30 L70,30 L70,18 Z" fill="none" stroke="#1976D2" stroke-width="2" />
    <text x="60" y="45" font-family="Arial" font-size="12" fill="#1976D2" text-anchor="middle">الرئيسية</text>
  </g>
  
  <!-- عنصر البحث -->
  <g class="nav-item">
    <circle cx="130" cy="20" r="18" fill="#f5f5f5" />
    <circle cx="130" cy="20" r="8" fill="none" stroke="#616161" stroke-width="2" />
    <line x1="136" y1="26" x2="142" y2="32" stroke="#616161" stroke-width="2" />
    <text x="130" y="45" font-family="Arial" font-size="12" fill="#616161" text-anchor="middle">بحث</text>
  </g>
  
  <!-- عنصر حاسبة الجرعات -->
  <g class="nav-item">
    <circle cx="200" cy="20" r="18" fill="#f5f5f5" />
    <rect x="192" y="12" width="16" height="16" rx="2" ry="2" fill="none" stroke="#616161" stroke-width="2" />
    <text x="200" y="45" font-family="Arial" font-size="12" fill="#616161" text-anchor="middle">حاسبة</text>
  </g>
  
  <!-- عنصر المفضلة -->
  <g class="nav-item">
    <circle cx="270" cy="20" r="18" fill="#f5f5f5" />
    <path d="M270,12 Q265,7 260,12 Q255,17 260,22 L270,32 L280,22 Q285,17 280,12 Q275,7 270,12" fill="none" stroke="#616161" stroke-width="2" />
    <text x="270" y="45" font-family="Arial" font-size="12" fill="#616161" text-anchor="middle">المفضلة</text>
  </g>
  
  <!-- عنصر حسابي -->
  <g class="nav-item">
    <circle cx="340" cy="20" r="18" fill="#f5f5f5" />
    <circle cx="340" cy="16" r="6" fill="none" stroke="#616161" stroke-width="2" />
    <path d="M328,32 C328,24 352,24 352,32" fill="none" stroke="#616161" stroke-width="2" />
    <text x="340" y="45" font-family="Arial" font-size="12" fill="#616161" text-anchor="middle">حسابي</text>
  </g>
</svg>