<svg xmlns="http://www.w3.org/2000/svg" viewBox="0 0 360 640" width="360" height="640">
  <!-- ุฎูููุฉ ุงูุดุงุดุฉ -->
  <rect width="360" height="640" fill="#f8f9fa" />
  
  <!-- ุดุฑูุท ุงูุชุทุจูู -->
  <rect x="0" y="0" width="360" height="60" fill="#1976D2" />
  
  <!-- ุฒุฑ ุงูุฑุฌูุน -->
  <circle cx="30" cy="30" r="18" fill="rgba(255,255,255,0.2)" />
  <path d="M35,20 L25,30 L35,40" fill="none" stroke="white" stroke-width="2" />
  
  <!-- ุนููุงู ุงูุดุงุดุฉ -->
  <text x="180" y="35" font-family="Arial" font-size="16" fill="white" text-anchor="middle">ุชูุงุตูู ุงูุฏูุงุก</text>
  
  <!-- ุฒุฑ ุงูููุถูุฉ -->
  <circle cx="330" cy="30" r="18" fill="rgba(255,255,255,0.2)" />
  <path d="M330,20 Q325,15 320,20 Q315,25 320,30 L330,40 L340,30 Q345,25 340,20 Q335,15 330,20" fill="none" stroke="white" stroke-width="1.5" />
  
  <!-- ูุนูููุงุช ุงูุฏูุงุก ุงูุฃุณุงุณูุฉ -->
  <rect x="20" y="80" width="320" height="100" rx="10" ry="10" fill="white" stroke="#e0e0e0" stroke-width="1" />
  
  <!-- ุฃููููุฉ ุงูุฏูุงุก -->
  <circle cx="60" cy="130" r="30" fill="#BBDEFB" />
  <text x="60" y="138" font-family="Arial" font-size="24" fill="#1976D2" text-anchor="middle">๐</text>
  
  <!-- ุงุณู ุงูุฏูุงุก ูุงููุงุฏุฉ ุงููุนุงูุฉ -->
  <text x="120" y="110" font-family="Arial" font-size="18" fill="#0D47A1">ุงุจูููู 500ูุฌู</text>
  <text x="120" y="135" font-family="Arial" font-size="14" fill="#616161">paracetamol</text>
  
  <!-- ูุนูููุงุช ุงูุณุนุฑ -->
  <rect x="20" y="190" width="320" height="60" rx="10" ry="10" fill="white" stroke="#e0e0e0" stroke-width="1" />
  <text x="40" y="220" font-family="Arial" font-size="18" fill="#0D47A1">24 ุฌููู</text>
  <text x="100" y="220" font-family="Arial" font-size="14" fill="#616161" text-decoration="line-through">13 ุฌููู</text>
  <rect x="250" y="205" width="70" height="30" rx="15" ry="15" fill="#FFEBEE" />
  <text x="285" y="225" font-family="Arial" font-size="14" fill="#f44336" text-anchor="middle">+84.6%</text>
  
  <!-- ุนูุงูุงุช ุงูุชุจููุจ -->
  <rect x="20" y="260" width="320" height="50" rx="10" ry="10" fill="white" stroke="#e0e0e0" stroke-width="1" />
  <rect x="20" y="260" width="106" height="50" rx="10" ry="10" fill="#1976D2" />
  <text x="73" y="290" font-family="Arial" font-size="14" fill="white" text-anchor="middle">ูุนูููุงุช</text>
  <text x="180" y="290" font-family="Arial" font-size="14" fill="#616161" text-anchor="middle">ุงูุจุฏุงุฆู</text>
  <text x="286" y="290" font-family="Arial" font-size="14" fill="#616161" text-anchor="middle">ุงูุฌุฑุนุงุช</text>
</svg>