<?xml version="1.0" encoding="UTF-8"?>
<svg version="1.1" xmlns="http://www.w3.org/2000/svg" width="512" height="512">
<path d="M0 0 C7.26962583 5.25099511 10.37743725 10.92415983 12.22265625 19.60546875 C12.65010006 23.58506057 12.77544135 27.5427792 12.84765625 31.54296875 C12.89863038 33.57301331 12.95315288 35.60297278 13.01171875 37.6328125 C13.02928223 38.51702881 13.0468457 39.40124512 13.06494141 40.31225586 C13.1376698 42.76782768 13.1376698 42.76782768 14.22265625 45.60546875 C19.08581779 46.66329392 19.08581779 46.66329392 23.83984375 45.60546875 C27.10970297 42.86093117 27.44386444 39.93222557 28.16015625 35.91796875 C30.03423265 27.23727014 32.75999208 21.68880229 40.34765625 16.66796875 C47.04118231 12.70292821 55.28861518 12.34539057 62.76171875 14.25390625 C69.98666396 17.15878113 75.31370423 21.8772554 78.39453125 29.078125 C81.04645925 35.9887113 80.70757294 42.82266438 80.62304688 50.12304688 C80.63374617 56.40595138 80.63374617 56.40595138 83.5625 61.8359375 C86.12381866 63.8939341 86.12381866 63.8939341 89.34765625 63.60546875 C92.32401277 62.57021431 93.344193 62.05494213 95.22265625 59.60546875 C95.8357017 56.91505953 95.8357017 56.91505953 96.09765625 53.91796875 C97.34077308 45.53956345 100.77751199 40.0809622 107.421875 34.859375 C114.01191501 30.27064866 120.4109745 29.69122771 128.22265625 30.60546875 C134.1085567 32.25175068 138.23394779 34.9329817 142.22265625 39.60546875 C142.94453125 40.40984375 143.66640625 41.21421875 144.41015625 42.04296875 C148.68720999 48.08983783 148.49332125 54.13496998 148.41796875 61.25390625 C148.41372391 62.77269882 148.41372391 62.77269882 148.40939331 64.32217407 C148.39823879 67.54172813 148.37314271 70.7609994 148.34765625 73.98046875 C148.33762035 76.1692668 148.32849556 78.35806924 148.3203125 80.546875 C148.29831495 85.89983533 148.26488449 91.25263183 148.22265625 96.60546875 C147.53341064 96.48953369 146.84416504 96.37359863 146.1340332 96.25415039 C101.94148482 88.86842507 59.13639092 91.1162399 19.22265625 113.60546875 C18.18753906 114.1675 17.15242187 114.72953125 16.0859375 115.30859375 C3.84017352 122.15981857 -7.18682464 130.38176793 -17.2578125 140.13720703 C-18.83442498 141.66062404 -20.43066021 143.16171982 -22.02734375 144.6640625 C-51.62175261 172.92259747 -71.43565791 216.12771084 -72.90185547 257.08349609 C-73.96035506 309.81781403 -58.53958146 356.46225682 -22.02075195 395.28955078 C-16.96200882 400.55184989 -11.63374989 405.23948962 -5.77734375 409.60546875 C-5.25736816 410.00040527 -4.73739258 410.3953418 -4.20166016 410.80224609 C30.65182164 437.18146734 70.94198466 447.986983 114.22265625 447.60546875 C114.36833032 451.16753597 114.45684821 454.72883426 114.53515625 458.29296875 C114.57705078 459.30037109 114.61894531 460.30777344 114.66210938 461.34570312 C114.67822266 462.32216797 114.69433594 463.29863281 114.7109375 464.3046875 C114.73712158 465.20018311 114.76330566 466.09567871 114.7902832 467.01831055 C113.95988945 470.80312027 112.20192304 472.18391097 109.22265625 474.60546875 C105.82308102 475.23188114 105.82308102 475.23188114 101.85276794 475.23365784 C101.12036221 475.24075222 100.38795648 475.24784661 99.63335663 475.25515598 C97.18398918 475.27273094 94.73620974 475.25463551 92.28686523 475.23657227 C90.52908608 475.24171127 88.77131207 475.24899241 87.0135498 475.258255 C82.24287441 475.27677835 77.47275747 475.26382513 72.70210528 475.24416471 C67.71115127 475.22778718 62.72023287 475.23658973 57.72926331 475.24168396 C49.34879629 475.2462055 40.96855244 475.23033028 32.58813477 475.20239258 C22.89556618 475.17032998 13.20339987 475.17036027 3.51080269 475.18760735 C-5.81016564 475.20346296 -15.13098631 475.19674577 -24.45194817 475.17967033 C-28.42039858 475.17279303 -32.38873087 475.17383922 -36.35717964 475.18121529 C-41.02847259 475.18886834 -45.69930686 475.17678419 -50.37052155 475.14936638 C-52.0862053 475.14247154 -53.8019318 475.14239633 -55.51761436 475.14958191 C-57.85707021 475.15825201 -60.19510248 475.14236413 -62.53443909 475.12013245 C-63.84426538 475.11732553 -65.15409166 475.1145186 -66.50360966 475.11162663 C-70.30790714 474.5234374 -71.46873713 473.61732496 -73.77734375 470.60546875 C-75.28508241 466.98613335 -74.91485427 462.97524559 -74.90332031 459.10913086 C-74.90518845 458.35878067 -74.90705658 457.60843048 -74.90898132 456.83534241 C-74.91298102 455.20610331 -74.91505977 453.57685863 -74.91544342 451.94761467 C-74.91888172 448.45556963 -74.94029046 444.96370694 -74.96067429 441.47172642 C-74.99848445 434.9807217 -75.02998279 428.48990688 -75.02783203 421.9987793 C-75.02703441 417.47455451 -75.05085812 412.95099349 -75.08971405 408.42694283 C-75.10002748 406.72057664 -75.10180904 405.01413238 -75.09406281 403.30775261 C-74.98801573 377.31856767 -83.62692448 357.23617227 -100.18603516 337.53857422 C-102.96609816 334.16138201 -105.58056791 330.65920634 -108.21484375 327.16796875 C-113.05466041 320.78837527 -118.0351264 314.54315719 -123.10864258 308.34838867 C-127.27923445 303.24692322 -131.31679577 298.05941254 -135.3125 292.8203125 C-137.49082719 289.96767847 -139.70530068 287.14503796 -141.93017578 284.32861328 C-143.78154134 281.98346474 -145.62249682 279.63023701 -147.46337891 277.27685547 C-148.70858627 275.69292949 -149.96720092 274.11957056 -151.2265625 272.546875 C-162.29637059 258.39481134 -168.26265874 244.07992287 -168.18139648 225.98461914 C-168.18825974 224.89184158 -168.19512299 223.79906403 -168.20219421 222.673172 C-168.22033373 219.09968675 -168.21664317 215.52664592 -168.2109375 211.953125 C-168.21550525 209.44550943 -168.22081258 206.93789512 -168.2268219 204.43028259 C-168.23686374 198.52102372 -168.23082462 192.61192057 -168.21956831 186.70266861 C-168.21238777 182.01268986 -168.22318029 177.32299025 -168.24389648 172.63305664 C-168.27227376 166.12874631 -168.28082891 159.6247261 -168.27366829 153.12035942 C-168.27351576 150.65540259 -168.27950285 148.19043691 -168.29195976 145.72551155 C-168.37603767 126.36449823 -167.22591057 111.03262179 -153.71484375 95.91796875 C-146.24849208 88.90874065 -135.09881567 82.60546875 -124.77734375 82.60546875 C-124.7749554 83.21930766 -124.77256704 83.83314657 -124.77010632 84.46558666 C-124.71095641 99.40536665 -124.63540649 114.34498042 -124.54162884 129.28457928 C-124.49667351 136.50928475 -124.45725831 143.73394097 -124.4309082 150.95874023 C-124.40792591 157.25627725 -124.37452546 163.55365832 -124.32864219 169.85107166 C-124.30471276 173.18518535 -124.28753616 176.51911161 -124.27972984 179.85330772 C-124.27012865 183.57651193 -124.24211564 187.299151 -124.2097168 191.0222168 C-124.21115189 192.12632904 -124.21258698 193.23044128 -124.21406555 194.36801147 C-124.25794448 201.53926607 -124.25794448 201.53926607 -120.77734375 207.60546875 C-117.55354209 208.63434162 -115.67191104 208.91977618 -112.46484375 207.79296875 C-110.62636553 206.6985955 -110.62636553 206.6985955 -109.77734375 204.60546875 C-109.67707836 202.32225323 -109.64386574 200.03602181 -109.63931274 197.75061035 C-109.63508082 196.68057274 -109.63508082 196.68057274 -109.63076341 195.58891821 C-109.6223964 193.18622108 -109.62107734 190.7835699 -109.61962891 188.38085938 C-109.61496201 186.66282013 -109.60981866 184.94478211 -109.60423279 183.22674561 C-109.59293769 179.51955786 -109.58451013 175.81237822 -109.57811356 172.10517883 C-109.56744162 166.23817952 -109.54719691 160.37123806 -109.5249939 154.50427246 C-109.46304907 137.81797956 -109.40911576 121.13168926 -109.37597656 104.4453125 C-109.35760453 95.23509043 -109.32863228 86.0249645 -109.28797185 76.81481314 C-109.26693763 71.94189142 -109.25144974 67.06909072 -109.24916458 62.19612122 C-109.24700981 57.60617568 -109.23105608 53.01648168 -109.20477486 48.42661285 C-109.19761074 46.74731587 -109.1954668 45.06798831 -109.19887733 43.3886795 C-109.23542886 21.95817276 -109.23542886 21.95817276 -102.43359375 13.20703125 C-96.14734358 7.12834594 -88.90430383 4.22075139 -80.28515625 4.3203125 C-73.01892219 5.14653538 -66.18684967 8.57139868 -61.4765625 14.14453125 C-57.60889435 19.50678503 -56.66050256 25.07497292 -55.6484375 31.53125 C-55.03243185 34.65936681 -55.03243185 34.65936681 -52.87890625 36.5 C-49.99150963 38.01883502 -47.99111796 38.0157378 -44.77734375 37.60546875 C-42.21784829 35.752041 -41.79815577 34.66790482 -40.77734375 31.60546875 C-40.70318483 29.79063512 -40.63226329 27.97550925 -40.58935547 26.15966797 C-40.33454954 17.46215846 -39.14806977 10.4861128 -33.13671875 3.7734375 C-23.81072927 -4.85940411 -11.13561634 -6.46408949 0 0 Z " fill="#000000" transform="translate(184.77734375,20.39453125)"/>
<path d="M0 0 C0.8029248 0.19335938 1.60584961 0.38671875 2.43310547 0.5859375 C43.9421652 10.71124174 80.26218188 36.64916903 102.80029297 73.015625 C125.28873798 110.21262969 132.63267162 154.19665238 122.75 196.5625 C112.27586887 238.98638797 86.61166045 275.28753014 49.31640625 298.35986328 C11.40067766 321.04224107 -33.26730685 327.65399535 -76.1081543 317.15820312 C-119.57978223 305.89649528 -154.66432873 278.52433957 -177.63330078 240.12475586 C-184.85800318 227.59130297 -190.1311766 214.08171151 -193.875 200.125 C-194.06610352 199.4136792 -194.25720703 198.7023584 -194.45410156 197.96948242 C-197.6651682 185.1441559 -198.37670836 172.39657533 -198.3125 159.25 C-198.31034485 158.4549707 -198.3081897 157.65994141 -198.30596924 156.84082031 C-198.25587364 145.32752002 -197.97021144 134.18726697 -195 123 C-194.69400879 121.81229004 -194.69400879 121.81229004 -194.38183594 120.60058594 C-188.74141798 99.19655446 -179.73598516 78.47259415 -166 61 C-165.34773438 60.1440625 -164.69546875 59.288125 -164.0234375 58.40625 C-141.69721617 29.9758558 -110.97752457 10.06954206 -76 1 C-75.20948242 0.78972168 -74.41896484 0.57944336 -73.60449219 0.36279297 C-50.82552219 -5.43056972 -22.80375985 -5.87248679 0 0 Z M-133 52 C-133.57202148 52.52964355 -134.14404297 53.05928711 -134.73339844 53.60498047 C-160.21765939 77.41392585 -178.51425057 111.07439638 -180.16113281 146.46240234 C-180.67104315 169.4302723 -180.67104315 169.4302723 -177 192 C-176.80132324 192.77666016 -176.60264648 193.55332031 -176.39794922 194.35351562 C-170.67956967 216.33608028 -160.86560211 235.75590155 -146 253 C-145.16726562 253.96679688 -144.33453125 254.93359375 -143.4765625 255.9296875 C-117.69011556 285.24993688 -81.28883094 301.54864351 -42.57128906 304.1640625 C-3.43653952 306.09425976 33.69113945 291.37182483 62.67529297 265.50488281 C91.32610866 239.19891241 107.47691766 202.43889089 109.22265625 163.734375 C110.36697365 123.72779183 94.61625581 86.69094024 67.59814453 57.67260742 C50.56295863 39.85472379 24.58521774 23.01745777 -0.1875 18.875 C-4.00931695 18.71583303 -4.00931695 18.71583303 -7 20.625 C-9.23741225 23.28192705 -10 24.53133299 -10 28 C-8.61761192 31.41531174 -7.39887264 32.75523724 -4.25 34.6875 C-0.87887476 36.04891596 2.50015357 37.02551669 6 38 C6.07029764 51.89143547 6.12288942 65.78284309 6.15543652 79.67442036 C6.17106115 86.12553916 6.19224105 92.57653807 6.22631836 99.02758789 C6.25902579 105.25863504 6.27687708 111.48956719 6.28463173 117.72069359 C6.29015481 120.09241736 6.30093986 122.46413518 6.31719017 124.83580971 C6.33911547 128.16972858 6.34196059 131.50317829 6.34057617 134.8371582 C6.351362 135.80748993 6.36214783 136.77782166 6.3732605 137.77755737 C6.32813054 147.88749444 3.3802876 156.778986 -0.6875 165.9375 C-1.05834717 166.79158447 -1.42919434 167.64566895 -1.8112793 168.52563477 C-4.14799975 173.88040886 -6.54197122 179.20887628 -8.94920349 184.5322113 C-10.38222664 187.70360926 -11.80881168 190.87789223 -13.23574829 194.05203247 C-14.28771938 196.38260028 -15.35092141 198.70780595 -16.41479492 201.03295898 C-23.30409516 216.23487137 -27.17651273 230.2323136 -27.09765625 247.05859375 C-27.0962413 248.20288345 -27.09482635 249.34717316 -27.09336853 250.52613831 C-27.08779301 254.16328601 -27.07524498 257.80037105 -27.0625 261.4375 C-27.05748184 263.9108064 -27.05291948 266.38411377 -27.04882812 268.85742188 C-27.0378316 274.90496912 -27.02111788 280.95248008 -27 287 C-64.54962678 287.39345684 -98.28305559 276.89315307 -125.78881836 250.61108398 C-132.89944821 243.63677145 -138.74631659 236.49166787 -144 228 C-144.61101562 227.0615625 -145.22203125 226.123125 -145.8515625 225.15625 C-162.83651908 197.92046059 -167.86015135 161.77701177 -160.76147461 130.64599609 C-160.20832276 128.41983447 -159.61422955 126.20999689 -159 124 C-158.82871582 123.34612305 -158.65743164 122.69224609 -158.48095703 122.01855469 C-154.17747414 105.92080026 -145.67660728 90.71744548 -135 78 C-134.28199219 77.14277344 -133.56398437 76.28554687 -132.82421875 75.40234375 C-111.86483747 51.3158079 -82.94255185 35.3602431 -51 32 C-49.62938155 31.91511837 -48.25821112 31.83887461 -46.88671875 31.76953125 C-45.81284912 31.71490723 -45.81284912 31.71490723 -44.71728516 31.65917969 C-42.66776943 31.56722317 -40.61704256 31.50354674 -38.56640625 31.44140625 C-34.84752774 30.98112884 -32.94766741 30.26290983 -30 28 C-27.64381458 25.11400612 -27.64381458 25.11400612 -28.1875 21.5 C-29.0038671 17.98334174 -29.25999188 17.10075143 -32 15 C-33.9357848 14.54141629 -33.9357848 14.54141629 -36.0703125 14.6015625 C-36.87557373 14.59535889 -37.68083496 14.58915527 -38.51049805 14.58276367 C-39.37328369 14.59670166 -40.23606934 14.61063965 -41.125 14.625 C-42.01936768 14.63442627 -42.91373535 14.64385254 -43.83520508 14.65356445 C-76.73378241 15.38542149 -109.12287977 29.6306784 -133 52 Z M-26 53 C-27.33827901 55.67655801 -27.20578556 57.82434052 -27.25 60.8125 C-27.27578125 61.85019531 -27.3015625 62.88789063 -27.328125 63.95703125 C-26.95701851 67.39860214 -26.04491005 69.23540073 -24 72 C-21.11138291 73.44430855 -19.20352299 73.37688506 -16 73 C-12.83959345 71.51369948 -12.83959345 71.51369948 -11 68 C-10.07333248 61.73752111 -9.68827669 56.08332526 -13.125 50.625 C-18.61839428 47.52003802 -22.07982531 48.06348372 -26 53 Z M-60 61 C-61.39865903 63.79731805 -61.24537267 66.19284559 -61.3125 69.3125 C-61.34988281 70.44300781 -61.38726562 71.57351562 -61.42578125 72.73828125 C-60.91376389 76.66061611 -59.78051604 78.23955989 -57 81 C-54.10293293 82.24677006 -54.10293293 82.24677006 -51 82 C-48.25283613 80.22960551 -46.46854078 78.93708156 -45 76 C-44.82528152 73.90051399 -44.73282148 71.79375592 -44.6875 69.6875 C-44.65011719 68.55699219 -44.61273438 67.42648438 -44.57421875 66.26171875 C-45.08623611 62.33938389 -46.21948396 60.76044011 -49 58 C-54.12347406 56.14682853 -56.23780285 57.23780285 -60 61 Z M-94 78 C-95.46861889 80.93723778 -95.24793404 83.60592357 -95.3125 86.875 C-95.34988281 88.10992187 -95.38726562 89.34484375 -95.42578125 90.6171875 C-95.28421669 94.04728521 -95.28421669 94.04728521 -93.1640625 96.3828125 C-90.33192477 98.49924756 -88.53714667 99 -85 99 C-82.25283613 97.22960551 -80.46854078 95.93708156 -79 93 C-78.82528152 90.90051399 -78.73282148 88.79375592 -78.6875 86.6875 C-78.65011719 85.55699219 -78.61273438 84.42648438 -78.57421875 83.26171875 C-79.08623611 79.33938389 -80.21948396 77.76044011 -83 75 C-88.12347406 73.14682853 -90.23780285 74.23780285 -94 78 Z M-25 94 C-28.11177269 98.83571644 -27.60402287 104.47319072 -27 110 C-25.08159655 113.76302216 -24.02447402 114.65124289 -20.0625 116 C-16.42758706 116 -14.85135167 115.19961414 -12 113 C-10.49856456 109.99712912 -10.73425982 106.916891 -10.6875 103.625 C-10.64399414 102.61566406 -10.64399414 102.61566406 -10.59960938 101.5859375 C-10.55552206 98.14034448 -10.7347692 96.34346834 -12.8671875 93.58203125 C-17.47375394 90.16507263 -20.53812861 90.50285756 -25 94 Z M-60 104 C-62.21929309 108.43858617 -61.51895033 114.18032335 -61 119 C-59.20299181 122.46784527 -59.20299181 122.46784527 -56 124 C-52.45704496 124.83345815 -52.45704496 124.83345815 -49 124 C-46.15067952 121.2528057 -45.09298637 119.55407053 -44.43359375 115.625 C-44.31162327 108.24834783 -44.31162327 108.24834783 -47.125 101.625 C-52.61839428 98.52003802 -56.07982531 99.06348372 -60 104 Z M-124.75 109.25 C-127.0361768 110.95348697 -127.0361768 110.95348697 -129 113 C-129.28033623 115.49351699 -129.41608386 117.81633002 -129.4375 120.3125 C-129.47746094 121.62863281 -129.51742187 122.94476563 -129.55859375 124.30078125 C-128.87423984 128.8328313 -127.62163867 130.27589787 -124 133 C-119.90353186 133.14373572 -117.85107509 132.63285071 -114.5625 130.1875 C-112.16979198 125.30637565 -112.21205051 120.33818033 -113 115 C-114.6695108 111.55451685 -115.4452953 110.28941115 -118.875 108.5 C-122.01695714 107.70219444 -122.01695714 107.70219444 -124.75 109.25 Z M-94.046875 119.9765625 C-96.32572882 124.81445708 -95.86558928 130.84228178 -95 136 C-93.21120821 138.69048887 -91.98297445 140.5243672 -89.0625 141.9375 C-86.21462217 142.02379933 -84.50382122 141.34821143 -82 140 C-79.65762243 137.59598092 -79.03285988 136.27983897 -78.63671875 132.90625 C-78.65347656 131.7821875 -78.67023438 130.658125 -78.6875 129.5 C-78.69330078 127.81390625 -78.69330078 127.81390625 -78.69921875 126.09375 C-78.98623161 123.14161769 -79.39296968 121.45646063 -81 119 C-85.47743405 115.91211445 -90.19109229 115.75472447 -94.046875 119.9765625 Z M-23.875 135.8125 C-27.14736078 139.18110668 -27.18176312 141.20082391 -27.25 145.8125 C-27.27578125 146.85019531 -27.3015625 147.88789063 -27.328125 148.95703125 C-26.95474911 152.41964811 -26.08511417 154.23453167 -24 157 C-21.19103937 158.658596 -21.19103937 158.658596 -18 159 C-15.07121816 157.66873553 -13.26695035 156.26695035 -11 154 C-10.7739255 151.49262823 -10.67563195 149.13153192 -10.6875 146.625 C-10.67138672 145.95210937 -10.65527344 145.27921875 -10.63867188 144.5859375 C-10.63563701 141.50251389 -10.82853201 139.31632005 -12.30859375 136.5859375 C-15.94607845 133.17527055 -19.82779527 133.26100137 -23.875 135.8125 Z M-58.875 144.6875 C-62.14284381 149.78149183 -61.87568999 155.10368741 -61 161 C-59.22851411 164.71136326 -59.22851411 164.71136326 -56 167 C-52.2586477 167.49884697 -50.43351204 167.24502854 -47.125 165.375 C-43.68827669 159.91667474 -44.07333248 154.26247889 -45 148 C-46.83959345 144.48630052 -46.83959345 144.48630052 -50 143 C-53.9001417 142.18747048 -55.44657382 142.67516289 -58.875 144.6875 Z M-128 154 C-130.40731466 158.81462933 -129.59576448 165.76294651 -129 171 C-127.32784102 174.16495142 -126.40644222 174.48602568 -123 176 C-119.63548754 176 -117.86813701 175.6585867 -115.1875 173.625 C-111.76844009 168.94628644 -112.47344736 162.49542967 -113 157 C-114.91840345 153.23697784 -115.97552598 152.34875711 -119.9375 151 C-123.57241294 151 -125.14864833 151.80038586 -128 154 Z M-92.875 161.625 C-96.31172331 167.08332526 -95.92666752 172.73752111 -95 179 C-93.16040655 182.51369948 -93.16040655 182.51369948 -90 184 C-86.49587381 184.57210224 -84.77595516 184.44040698 -81.6875 182.6875 C-78.52592843 179.52592843 -78.75162604 175.88158309 -78.625 171.625 C-78.6643782 167.20971886 -78.70058877 165.46672926 -81.125 161.6875 C-85.71983281 158.99053292 -88.24417018 159.00757445 -92.875 161.625 Z M-60 189 C-61.39865903 191.79731805 -61.24537267 194.19284559 -61.3125 197.3125 C-61.34988281 198.44300781 -61.38726562 199.57351563 -61.42578125 200.73828125 C-60.91376389 204.66061611 -59.78051604 206.23955989 -57 209 C-54.10293293 210.24677006 -54.10293293 210.24677006 -51 210 C-48.25283613 208.22960551 -46.46854078 206.93708156 -45 204 C-44.82528152 201.90051399 -44.73282148 199.79375592 -44.6875 197.6875 C-44.65011719 196.55699219 -44.61273438 195.42648437 -44.57421875 194.26171875 C-45.08623611 190.33938389 -46.21948396 188.76044011 -49 186 C-54.12347406 184.14682853 -56.23780285 185.23780285 -60 189 Z M-126.875 195.625 C-130.31172331 201.08332526 -129.92666752 206.73752111 -129 213 C-127.16040655 216.51369948 -127.16040655 216.51369948 -124 218 C-120.95691709 218.75015195 -120.95691709 218.75015195 -118 218 C-115.69724444 216.1329009 -114.32176129 214.64352259 -113 212 C-112.87742539 210.04450744 -112.82447612 208.08429382 -112.8125 206.125 C-112.79123047 204.55105469 -112.79123047 204.55105469 -112.76953125 202.9453125 C-112.99951714 200.00617075 -113.36486 198.42283203 -115 196 C-119.4152426 193.05650493 -122.24144209 193.00603249 -126.875 195.625 Z M-94 206 C-95.46861889 208.93723778 -95.24793404 211.60592357 -95.3125 214.875 C-95.34988281 216.10992187 -95.38726562 217.34484375 -95.42578125 218.6171875 C-95.28421669 222.04728521 -95.28421669 222.04728521 -93.1640625 224.3828125 C-90.33192477 226.49924756 -88.53714667 227 -85 227 C-82.25283613 225.22960551 -80.46854078 223.93708156 -79 221 C-78.82528152 218.90051399 -78.73282148 216.79375592 -78.6875 214.6875 C-78.65011719 213.55699219 -78.61273438 212.42648437 -78.57421875 211.26171875 C-79.08623611 207.33938389 -80.21948396 205.76044011 -83 203 C-88.12347406 201.14682853 -90.23780285 202.23780285 -94 206 Z M-60 232 C-62.21929309 236.43858617 -61.51895033 242.18032335 -61 247 C-59.20299181 250.46784527 -59.20299181 250.46784527 -56 252 C-52.45704496 252.83345815 -52.45704496 252.83345815 -49 252 C-46.15067952 249.2528057 -45.09298637 247.55407053 -44.43359375 243.625 C-44.31162327 236.24834783 -44.31162327 236.24834783 -47.125 229.625 C-52.61839428 226.52003802 -56.07982531 227.06348372 -60 232 Z " fill="#000000" transform="translate(326,131)"/>
<path d="M0 0 C17.5109397 3.12343496 35.30841815 22.95021476 45.375 37.0625 C46.95684615 39.35000593 48.49065014 41.66413398 50 44 C50.97066406 45.49660156 50.97066406 45.49660156 51.9609375 47.0234375 C69.54745086 75.66871909 74.09795253 111.63089114 66.47851562 144.1237793 C61.12657958 165.19594497 51.05955649 184.29587106 36 200 C35.03397599 201.18125215 34.0749471 202.36828079 33.125 203.5625 C17.25634133 222.06872864 -9.89664598 236.18776036 -34 239 C-34.07683832 232.27807035 -34.12892623 225.55625629 -34.16479492 218.83398438 C-34.17976739 216.55301684 -34.20015257 214.27207753 -34.22631836 211.99121094 C-34.43423406 193.38479387 -32.89766074 179.09008476 -25.125 161.9375 C-24.55153052 160.64233263 -23.97937425 159.34658311 -23.40844727 158.05029297 C-20.75366233 152.04384724 -18.03811671 146.06595884 -15.28668213 140.10322571 C-14.11212933 137.55538148 -12.94605114 135.00368542 -11.77947998 132.45217896 C-10.96950196 130.69444738 -10.14255587 128.94456514 -9.31494141 127.19506836 C-1.63557222 110.49628129 -0.39761853 95.45342554 -0.390625 77.34375 C-0.37561278 75.10216089 -0.35887936 72.86058271 -0.34051514 70.61901855 C-0.29717096 64.773208 -0.27691614 58.92754655 -0.26177979 53.081604 C-0.24208897 47.09467877 -0.2001331 41.10791181 -0.16015625 35.12109375 C-0.08521154 23.41411173 -0.03470466 11.70716573 0 0 Z " fill="#000000" transform="translate(349,177)"/>
<path d="M0 0 C2.70877583 1.17544273 4.28918532 2.74532987 6.37309265 4.83958435 C7.21043442 5.67392502 8.04777618 6.50826569 8.91049194 7.3678894 C10.25286674 8.72878441 10.25286674 8.72878441 11.62236023 10.11717224 C12.54656265 11.04324783 13.47076508 11.96932343 14.42297363 12.92346191 C16.37677892 14.88186525 18.32557582 16.84507056 20.27055359 18.8122406 C22.76555348 21.33556151 25.26918524 23.85008834 27.7761488 26.36151791 C30.16556325 28.7560838 32.55025623 31.15531524 34.93486023 33.55467224 C35.83584946 34.45991135 36.73683868 35.36515045 37.66513062 36.29782104 C38.4930159 37.13531387 39.32090118 37.9728067 40.1738739 38.8356781 C40.90571396 39.57434616 41.63755402 40.31301422 42.39157104 41.07406616 C44.67656135 43.54918828 45.05113945 44.69806378 45.52079773 48.09373474 C44.91745545 53.29956417 42.70243727 55.32382588 39.01689148 58.83982849 C38.45550476 59.42828552 37.89411804 60.01674255 37.3157196 60.62303162 C34.44815494 63.44471524 32.62068125 64.77362592 28.64579773 65.71873474 C20.37516014 63.82545626 13.80743532 54.76606812 7.98564148 48.90623474 C7.15351135 48.07268967 6.32138123 47.23914459 5.46403503 46.38034058 C2.83344213 43.74419587 0.20636707 41.10457745 -2.42060852 38.46482849 C-4.21464707 36.6657687 -6.00891567 34.86693829 -7.80342102 33.06834412 C-12.17847977 28.68232037 -16.55066364 24.29344707 -20.92060852 19.90232849 C-16.83552698 15.10343314 -12.69582937 10.41563913 -8.29560852 5.90232849 C-7.7361554 5.30549255 -7.17670227 4.70865662 -6.60029602 4.09373474 C-2.46871478 -0.12554516 -2.46871478 -0.12554516 0 0 Z " fill="#000000" transform="translate(449.9206085205078,430.09767150878906)"/>
<path d="M0 0 C3.68069887 1.53643852 5.98775204 3.78150945 8.75 6.625 C9.54921875 7.44226563 10.3484375 8.25953125 11.171875 9.1015625 C11.77515625 9.72804688 12.3784375 10.35453125 13 11 C8.76183463 16.06623768 4.32591037 20.80038069 -0.375 25.4375 C-1.01566406 26.07365234 -1.65632813 26.70980469 -2.31640625 27.36523438 C-3.87530879 28.91250332 -5.43651416 30.45736492 -7 32 C-8.1065941 31.06122074 -9.21178799 30.12079084 -10.31640625 29.1796875 C-11.23981812 28.39440674 -11.23981812 28.39440674 -12.18188477 27.59326172 C-14.57236585 25.4984209 -16.78679163 23.28027529 -19 21 C-17.62313762 17.80346523 -16.13756103 16.04595816 -13.4375 13.875 C-8.46438888 9.68663669 -4.2580182 4.89869223 0 0 Z " fill="#000000" transform="translate(425,406)"/>
</svg>
