<?xml version="1.0" encoding="UTF-8"?>
<svg version="1.1" xmlns="http://www.w3.org/2000/svg" width="512" height="512">
<path d="M0 0 C17.7085412 15.01541238 29.69925922 33.60773183 31.72680664 57.27661133 C31.86065099 60.95745603 31.89162714 64.61912595 31.86132812 68.30224609 C31.85302979 69.61563965 31.84473145 70.9290332 31.83618164 72.28222656 C31.06898247 116.8453041 6.6819222 157.47596392 -23.57617188 188.73974609 C-24.28257812 189.48611328 -24.98898437 190.23248047 -25.71679688 191.00146484 C-47.78883897 213.8361588 -78.05622809 231.2085518 -108.57617188 239.73974609 C-109.27564941 239.93729492 -109.97512695 240.13484375 -110.69580078 240.33837891 C-130.86644434 245.77835384 -154.75034169 246.97510309 -174.57617188 239.73974609 C-175.61902344 239.38912109 -176.661875 239.03849609 -177.73632812 238.67724609 C-197.98267382 231.15344279 -212.59992865 215.29981441 -221.82617188 196.23974609 C-233.99484297 168.91702327 -229.87567653 136.89404262 -219.54882812 109.64599609 C-211.48507014 89.23346959 -200.76243867 70.50783638 -186.57617188 53.73974609 C-185.87363281 52.90701172 -185.17109375 52.07427734 -184.44726562 51.21630859 C-182.21364817 48.6648139 -179.91193296 46.19825738 -177.57617188 43.73974609 C-177.03959961 43.16530762 -176.50302734 42.59086914 -175.95019531 41.99902344 C-136.34062506 -0.17402802 -53.89572248 -43.09320313 0 0 Z M-81.57617188 59.73974609 C-81.91648437 60.67173828 -82.25679688 61.60373047 -82.60742188 62.56396484 C-87.58917132 75.82003953 -94.43024974 86.86780395 -103.57617188 97.73974609 C-104.01574219 98.30177734 -104.4553125 98.86380859 -104.90820312 99.44287109 C-116.28193069 113.89777569 -135.12850916 125.35466501 -152.57617188 130.73974609 C-150.4093938 140.12178517 -148.21697251 149.4769378 -145.57617188 158.73974609 C-139.13777381 157.56584196 -133.47280872 155.69003669 -127.57617188 152.86474609 C-126.75874512 152.47327393 -125.94131836 152.08180176 -125.09912109 151.6784668 C-110.83937597 144.60637055 -98.89295923 134.81298709 -87.57617188 123.73974609 C-86.58423828 122.82322266 -86.58423828 122.82322266 -85.57226562 121.88818359 C-70.57476388 107.76060655 -57.45240449 87.01631314 -53.57617188 66.73974609 C-57.86674297 65.56902423 -62.15880221 64.40385473 -66.45117188 63.23974609 C-67.67449219 62.90587891 -68.8978125 62.57201172 -70.15820312 62.22802734 C-71.32480469 61.91220703 -72.49140625 61.59638672 -73.69335938 61.27099609 C-74.77214355 60.97773438 -75.85092773 60.68447266 -76.96240234 60.38232422 C-79.4512672 59.66016781 -79.4512672 59.66016781 -81.57617188 59.73974609 Z " fill="#000000" transform="translate(480.576171875,148.26025390625)"/>
<path d="M0 0 C1.022146 0.24943359 1.022146 0.24943359 2.06494141 0.50390625 C13.61068924 3.38834013 24.31037367 7.81601253 35 13 C35.71687988 13.34546875 36.43375977 13.6909375 37.17236328 14.046875 C53.73105902 22.13201362 68.25430165 32.79709437 82 45 C82.99 45.86753906 83.98 46.73507812 85 47.62890625 C90.42830726 52.4598047 95.40109422 57.38015587 100 63 C100.87877986 64.03135771 101.75769829 65.06259735 102.63671875 66.09375 C130.60087786 99.41284733 148.20432329 141.11936741 145 185 C142.80289976 205.68554614 131.91503066 225.61040834 116 239 C93.8027607 255.50458937 69.3635324 259.76585286 42.15625 256.4921875 C38.04598058 255.8861654 34.02831548 255.00933408 30 254 C29.33307129 253.83902832 28.66614258 253.67805664 27.97900391 253.51220703 C-20.28228351 241.56452565 -64.16905816 206.81123496 -89.75 164.5 C-98.54109379 149.56379012 -105.74503226 133.92048649 -110.75 117.3125 C-110.94875732 116.66031494 -111.14751465 116.00812988 -111.35229492 115.33618164 C-114.50775331 104.40636629 -115.39014868 93.5941974 -115.375 82.25 C-115.37478851 81.59147034 -115.37457703 80.93294067 -115.37435913 80.25445557 C-115.34110777 69.86584725 -114.56834937 60.77774678 -111 51 C-110.649375 49.95714844 -110.29875 48.91429687 -109.9375 47.83984375 C-102.9263899 28.97314123 -87.45431207 12.88973181 -69.40234375 4.28515625 C-47.69895963 -5.18582333 -22.85629979 -5.78669339 0 0 Z M-10.76171875 74.53125 C-11.87998047 74.84707031 -12.99824219 75.16289062 -14.15039062 75.48828125 C-15.31763672 75.82214844 -16.48488281 76.15601563 -17.6875 76.5 C-18.86634766 76.83386719 -20.04519531 77.16773438 -21.25976562 77.51171875 C-24.1741842 78.33766733 -27.08752428 79.16723128 -30 80 C-25.05626758 101.48622169 -12.7640383 119.05601858 2 135 C2.73605469 135.81855469 3.47210938 136.63710938 4.23046875 137.48046875 C19.38824759 153.57644667 39.02560941 165.33108529 60 172 C60.66 172 61.32 172 62 172 C63.17072186 167.70942891 64.33589137 163.41736967 65.5 159.125 C65.83386719 157.90167969 66.16773438 156.67835938 66.51171875 155.41796875 C66.82753906 154.25136719 67.14335937 153.08476562 67.46875 151.8828125 C67.90864258 150.26463623 67.90864258 150.26463623 68.35742188 148.61376953 C69.07957828 146.12490467 69.07957828 146.12490467 69 144 C67.94683594 143.61070312 66.89367187 143.22140625 65.80859375 142.8203125 C50.80336852 137.07884778 38.53805064 129.22830432 27 118 C26.16984375 117.23171875 25.3396875 116.4634375 24.484375 115.671875 C12.35849741 104.1411325 2.93674014 89.05060739 -2 73 C-5.24167064 73 -7.6463488 73.6456626 -10.76171875 74.53125 Z " fill="#000000" transform="translate(115,255)"/>
<path d="M0 0 C0.8048584 0.18804199 1.6097168 0.37608398 2.43896484 0.56982422 C22.00344462 5.23722811 40.38505138 13.182486 56 26 C56.52916016 26.42893555 57.05832031 26.85787109 57.60351562 27.29980469 C74.25080205 41.00993252 84.47760465 59.7052838 86.8125 81.25 C88.03316805 103.01425162 80.69489663 122.12035438 66.5 138.375 C65.01751159 139.93351346 63.51829589 141.47634857 62 143 C61.36191406 143.66128906 60.72382813 144.32257813 60.06640625 145.00390625 C35.85121219 168.36944438 -0.51902867 177.4762254 -33.1875 177.3125 C-33.9613504 177.31034485 -34.73520081 177.3081897 -35.53250122 177.30596924 C-46.91998999 177.25506853 -57.93893484 176.90780579 -69 174 C-69.79857422 173.79600586 -70.59714844 173.59201172 -71.41992188 173.38183594 C-91.0003907 168.25929897 -109.37776194 160.08967123 -125 147 C-125.73863281 146.40703125 -126.47726563 145.8140625 -127.23828125 145.203125 C-141.15693346 133.56818948 -151.57726385 116.10885871 -154 98 C-155.80295781 77.26401264 -151.9512506 58.11588756 -138.875 41.4375 C-136.06484888 38.12572881 -133.15266716 34.99099192 -130 32 C-129.56042969 31.505 -129.12085938 31.01 -128.66796875 30.5 C-99.13494655 -1.79940656 -40.5898034 -10.00356397 0 0 Z M-73.625 69.125 C-74.89009882 70.13477416 -76.15572129 71.14389263 -77.421875 72.15234375 C-78.03482422 72.64202637 -78.64777344 73.13170898 -79.27929688 73.63623047 C-82.46677324 76.16251353 -85.73093663 78.5808931 -89 81 C-78.97703905 94.07261883 -61.85424487 99.01568177 -46.125 101.3125 C-25.73433103 103.54738543 -1.85643479 100.91958019 14.74609375 87.8359375 C16.89079483 85.94217648 18.9721112 84.01764694 21 82 C16.89460186 77.76655826 12.56420324 73.8703474 8.0625 70.0625 C7.37220703 69.44826172 6.68191406 68.83402344 5.97070312 68.20117188 C4.0299626 66.57315731 2.25060903 65.16382845 0 64 C-3.26505052 64.31741905 -3.26505052 64.31741905 -6 66 C-6.7528125 66.33 -7.505625 66.66 -8.28125 67 C-9.0134375 67.33 -9.745625 67.66 -10.5 68 C-25.96738198 74.15468106 -44.71194044 73.33362467 -60 67 C-61.66876647 66.00350802 -63.33587031 65.00421619 -65 64 C-68.51197157 64 -70.98531941 66.99009561 -73.625 69.125 Z " fill="#000000" transform="translate(154,3)"/>
<path d="M0 0 C7.59026715 6.95558611 13.48044464 15.83694985 14.23828125 26.28515625 C14.51661131 40.45069121 10.90583749 49.50788693 1.26171875 59.8671875 C-7.12507319 67.94867866 -18.7190461 72.70855624 -30 75 C-30.89847656 75.18304688 -31.79695313 75.36609375 -32.72265625 75.5546875 C-52.88145406 78.29378518 -72.77042444 75.07016116 -89.5390625 63.203125 C-91.49193564 61.55939394 -93.25000653 59.85655045 -95 58 C-95.93392578 57.07767578 -95.93392578 57.07767578 -96.88671875 56.13671875 C-104.88584476 47.7686603 -107.10073205 38.41150245 -107 27 C-106.23889974 16.87898589 -100.58357947 7.62251013 -93.24609375 0.83984375 C-66.97561119 -20.67910805 -26.81786882 -20.50535508 0 0 Z " fill="#000000" transform="translate(467,436)"/>
<path d="M0 0 C7.45383176 5.59344714 13.80957958 12.0574065 19.14355469 19.71582031 C19.68496094 20.48152344 20.22636719 21.24722656 20.78417969 22.03613281 C28.97418706 34.56932591 33.2023347 50.57250772 30.68261719 65.43457031 C27.90853493 75.74762904 22.39354038 84.38875375 13.16699219 89.89550781 C1.80705217 95.90443361 -10.75625665 96.35581635 -23.04394531 93.15332031 C-34.36305348 89.48330231 -43.99224224 83.58662131 -52.85644531 75.71582031 C-53.54222656 75.12414062 -54.22800781 74.53246094 -54.93457031 73.92285156 C-65.24950447 64.39981196 -74.83968306 48.86788229 -76.03344727 34.6003418 C-76.40655571 20.81911303 -76.10117382 9.74292826 -66.83300781 -1.28027344 C-48.45031748 -19.91726976 -19.43598244 -13.4446696 0 0 Z " fill="#000000" transform="translate(346.8564453125,12.2841796875)"/>
</svg>
