<?xml version="1.0" encoding="UTF-8"?>
<svg version="1.1" xmlns="http://www.w3.org/2000/svg" width="512" height="512">
<path d="M0 0 C1.06752439 0.03364434 2.13504879 0.06728868 3.23492241 0.10195255 C6.38199236 0.20726202 9.52552075 0.35006358 12.67071056 0.49983072 C16.57815674 0.6703802 20.48759235 0.77595521 24.39703369 0.88961792 C34.85608049 1.20247052 45.31211725 1.5848841 55.76856089 1.97407794 C61.06669082 2.17033259 66.36500586 2.36146514 71.66329956 2.55323792 C80.55070889 2.87561459 89.43799311 3.20126173 98.32519531 3.52929688 C110.78522239 3.98920123 123.24546769 4.44296282 135.70576119 4.89558303 C145.47462174 5.25068033 155.24341703 5.60756773 165.01220703 5.96459961 C166.04235884 6.00222247 167.07251065 6.03984533 168.13387918 6.07860827 C171.18057654 6.18991923 174.22726807 6.30138802 177.2739563 6.41294861 C178.24944353 6.44864132 179.22493076 6.48433402 180.2299782 6.52110833 C184.89881702 6.69245063 189.56754439 6.86617559 194.23608589 7.04544735 C195.96193554 7.11167187 197.68778532 7.17789289 199.41363525 7.24411011 C200.23289313 7.27562111 201.052151 7.30713212 201.89623487 7.339598 C206.77508165 7.52458763 211.65355916 7.67907606 216.53411865 7.81130981 C218.18049726 7.86262228 218.18049726 7.86262228 219.86013603 7.91497135 C221.77617815 7.97412815 223.69259672 8.0227125 225.60923958 8.05731106 C231.36612563 8.25148963 231.36612563 8.25148963 233.52850533 9.89217281 C235.75571931 12.83323499 235.25354504 16.36540261 235.19189453 19.90600586 C235.18319336 20.7405127 235.17449219 21.57501953 235.16552734 22.43481445 C234.65230645 45.17218258 229.28499255 66.61344838 221.39599609 87.80029297 C220.71445681 89.59664166 220.71445681 89.59664166 220.81689453 91.59350586 C221.85845703 91.80104492 222.90001953 92.00858398 223.97314453 92.22241211 C250.56801403 97.82100277 274.64012214 111.98082844 290.06689453 134.84350586 C297.78335878 146.71092693 302.72504499 158.79654284 305.81689453 172.59350586 C305.99196533 173.35751709 306.16703613 174.12152832 306.34741211 174.90869141 C311.04764209 201.78774969 304.53782401 229.00324683 289.27001953 251.27319336 C273.40230139 273.34609233 249.77957461 288.51949098 223.00097656 293.25756836 C195.77175459 297.4457429 168.20233249 291.50905635 145.69189453 275.46850586 C123.32482101 257.72071926 110.37480727 236.48663314 104.81689453 208.59350586 C94.63970688 216.53171223 88.8988679 226.8042409 86.81689453 239.59350586 C85.74617141 253.78058718 89.13336096 266.60582357 98.46240234 277.51831055 C102.23422519 281.71257755 106.1503309 285.76244343 110.08837891 289.80004883 C112.27464189 292.06845107 114.36340574 294.41383807 116.44189453 296.78100586 C119.96941746 300.74278824 123.67444652 304.48773306 127.44189453 308.21850586 C132.11560019 312.85162267 136.57566235 317.55762016 140.81689453 322.59350586 C141.64576172 323.53323242 142.47462891 324.47295898 143.32861328 325.44116211 C181.08939136 368.51225861 192.68171014 428.32549589 193.00439453 484.34350586 C193.01857422 485.49334961 193.03275391 486.64319336 193.04736328 487.82788086 C192.81689453 490.59350586 192.81689453 490.59350586 190.81689453 492.59350586 C188.57050228 493.08820629 188.57050228 493.08820629 185.70848083 493.4329071 C184.62289351 493.56450226 183.53730619 493.69609741 182.41882229 493.8316803 C181.21914853 493.96408615 180.01947477 494.096492 178.78344727 494.23291016 C177.51997247 494.37412292 176.25649767 494.51533569 174.95473576 494.66082764 C158.09675664 496.4854838 141.19186239 497.54847639 124.25439453 498.28100586 C123.43749979 498.31762329 122.62060506 498.35424072 121.77895594 498.39196777 C80.73840915 500.18409148 46.01019908 498.75502638 14.46547127 470.14954185 C7.12855904 463.36246213 0.36355397 456.08325861 -6.24560547 448.59350586 C-6.70950888 448.06964153 -7.17341229 447.5457772 -7.65137339 447.00603819 C-18.08827983 435.19388141 -28.0227873 423.01368506 -37.26473331 410.23701 C-42.08720862 403.57476343 -47.25929373 397.31304823 -53.18310547 391.59350586 C-56.37571859 388.44370556 -59.35471826 385.18131097 -62.27685547 381.78100586 C-64.49256195 379.23839187 -66.77409139 376.76240387 -69.05810547 374.28100586 C-73.97871391 368.87798483 -78.61800669 363.29798037 -83.18310547 357.59350586 C-84.07977694 356.50067711 -84.97693151 355.4082446 -85.87451172 354.31616211 C-107.73636291 327.46452104 -123.17711511 292.36426599 -123.38623047 257.35131836 C-123.39193054 256.5840744 -123.39763062 255.81683044 -123.40350342 255.02633667 C-123.41289272 253.40778961 -123.41946303 251.78922395 -123.42333984 250.1706543 C-123.43294358 247.7591565 -123.46398193 245.34855075 -123.49560547 242.93725586 C-123.59489872 228.47742172 -121.74580634 214.46321876 -117.55810547 200.59350586 C-117.30432129 199.7343457 -117.05053711 198.87518555 -116.7890625 197.98999023 C-100.00403025 142.21876407 -74.20061815 88.54971134 -41.18310547 40.59350586 C-40.5537207 39.67843262 -40.5537207 39.67843262 -39.91162109 38.74487305 C-34.82874192 31.39884397 -29.46458259 24.2808526 -23.99560547 17.21850586 C-23.42535645 16.48116211 -22.85510742 15.74381836 -22.26757812 14.98413086 C-21.43105713 13.91291992 -21.43105713 13.91291992 -20.57763672 12.82006836 C-20.09141846 12.19696777 -19.6052002 11.57386719 -19.10424805 10.93188477 C-18.470271 10.16021973 -17.83629395 9.38855469 -17.18310547 8.59350586 C-16.73402108 7.94753354 -16.2849367 7.30156122 -15.82224369 6.63601398 C-11.04889808 0.30721782 -7.70750251 -0.49013496 0 0 Z M-10.84698772 17.21503639 C-11.28790658 17.99993132 -11.72882544 18.78482624 -12.18310547 19.59350586 C-13.3065097 21.04397541 -14.4473908 22.48124708 -15.61279297 23.89819336 C-37.96798144 53.28353851 -56.64473128 84.6039906 -73.18310547 117.59350586 C-73.64700684 118.51728027 -74.1109082 119.44105469 -74.58886719 120.39282227 C-102.14245351 175.67470993 -125.45935052 236.7627357 -105.06298828 298.10473633 C-95.21203689 325.9683874 -78.06339383 347.5452851 -58.41357422 369.11694336 C-56.57572394 371.15756872 -54.77401637 373.22081473 -52.97744751 375.29748535 C-50.08869264 378.60372043 -47.10351658 381.78537123 -44.04767799 384.93642426 C-37.76485535 391.44715474 -32.01306139 398.19169795 -26.54101562 405.39624023 C-17.42381565 417.36323993 -7.82961599 428.87611091 2.19189453 440.09350586 C2.86720333 440.85172315 2.86720333 440.85172315 3.55615473 441.62525797 C26.85534512 467.69679544 49.05901872 485.98968154 85.0235672 488.19002295 C97.6263543 488.85732654 110.15492388 488.66435777 122.75439453 488.03100586 C123.48871169 487.99475475 124.22302885 487.95850365 124.97959805 487.92115402 C144.015787 486.95855302 162.92923458 485.18437597 181.81689453 482.59350586 C181.82265035 481.00375795 181.82674189 479.41400397 181.83013916 477.82424927 C181.83259769 476.93895601 181.83505623 476.05366276 181.83758926 475.14154243 C181.78958152 469.23059508 181.1283727 463.34865674 180.56689453 457.46850586 C180.5006488 456.76786011 180.43440308 456.06721436 180.3661499 455.34533691 C177.29403611 423.26245614 171.39494549 391.12740597 155.81689453 362.59350586 C154.95064453 360.98862305 154.95064453 360.98862305 154.06689453 359.35131836 C144.9785547 343.15219412 132.49246771 328.98215522 119.26611328 316.03881836 C117.17810419 313.95413943 115.22917537 311.83736983 113.31689453 309.59350586 C110.47560947 306.26045992 107.431935 303.16822726 104.31689453 300.09350586 C88.49506858 284.41320848 76.32967631 267.9151234 75.71923828 244.91381836 C76.47087276 228.45119001 82.70228106 212.94483997 94.81689453 201.59350586 C95.54473145 201.12485107 96.27256836 200.65619629 97.02246094 200.17333984 C101.89608203 196.96461751 101.89608203 196.96461751 104.74389648 192.0402832 C105.20008566 189.06719712 105.42382417 186.1602469 105.56689453 183.15600586 C105.75540639 181.00009494 105.95465278 178.84509606 106.16455078 176.69116211 C106.26396973 175.64589355 106.36338867 174.600625 106.46582031 173.52368164 C108.45803302 156.89604815 117.37599466 140.4010097 127.81689453 127.59350586 C128.50396484 126.74272461 129.19103516 125.89194336 129.89892578 125.01538086 C144.35410304 108.03380325 167.40267755 95.1256559 189.81689453 92.59350586 C191.28157912 92.55444299 192.74646475 92.52260829 194.21142578 92.49584961 C202.9295375 92.46118865 202.9295375 92.46118865 210.09814453 88.27709961 C211.45509169 85.45132933 212.45218918 82.70885467 213.25146484 79.67895508 C213.85426545 77.45567234 214.5833847 75.30407103 215.34033203 73.12866211 C221.08151032 56.11104183 224.95894829 37.61257633 223.81689453 19.59350586 C219.16227127 18.46457683 214.56707632 18.30203512 209.80351257 18.10897827 C208.43962291 18.04916887 208.43962291 18.04916887 207.04817992 17.98815119 C204.00078222 17.85572674 200.95317126 17.72916966 197.90551758 17.6027832 C195.72073453 17.50943345 193.53596098 17.41586108 191.35119629 17.32208252 C171.43406211 16.47352346 151.51422559 15.68715684 131.59396648 14.9158535 C128.93039781 14.81256661 126.26683133 14.70922672 123.60327148 14.60571289 C122.61029983 14.56713257 122.61029983 14.56713257 121.59726814 14.52777286 C110.87052651 14.10999665 100.14555301 13.65708408 89.42083337 13.19055192 C78.40200352 12.71192407 67.38216256 12.26922132 56.36059982 11.85830271 C50.17531807 11.62665246 43.99162098 11.37905988 37.80859947 11.09293747 C31.99270084 10.82444404 26.17674501 10.59973656 20.35781097 10.4084549 C18.22387262 10.33065686 16.09044443 10.23698261 13.95796394 10.12620163 C-0.35379084 8.80813941 -0.35379084 8.80813941 -10.84698772 17.21503639 Z M140.81689453 128.59350586 C140.05892578 129.33987305 139.30095703 130.08624023 138.52001953 130.85522461 C121.66315386 148.43867932 114.27718716 171.18155041 114.39306641 195.24511719 C115.03864498 220.51646497 125.95319263 242.10300107 143.81689453 259.59350586 C161.94860893 276.66979211 185.61107693 284.40302621 210.28955078 283.84350586 C234.50049085 282.81783587 256.92259405 271.42016426 273.36914062 253.9440918 C289.41634028 235.9573518 297.54730128 212.81009706 297.12548828 188.74194336 C295.63612119 163.31764364 284.43993355 140.85199708 265.81689453 123.59350586 C229.21707257 92.13332469 174.71921736 94.74884004 140.81689453 128.59350586 Z " fill="#000000" transform="translate(164.18310546875,9.406494140625)"/>
<path d="M0 0 C8.6954438 6.47313127 14.53083059 14.45277954 16.31640625 25.26953125 C17.32907018 36.7338871 16.34082501 46.53102695 8.94140625 55.64453125 C8.39742188 56.22976563 7.8534375 56.815 7.29296875 57.41796875 C6.05240926 59.28033252 6.05240926 59.28033252 6.85546875 61.5859375 C8.65437388 64.89034344 10.79412521 67.84615796 13.06640625 70.83203125 C17.57215283 76.86236949 21.95067229 82.96805503 26.25390625 89.14453125 C26.84574707 89.99321777 27.43758789 90.8419043 28.04736328 91.71630859 C29.23308053 93.41671064 30.41862934 95.11723015 31.60400391 96.81787109 C34.20373839 100.53993179 36.82107037 104.24945669 39.44140625 107.95703125 C40.17218384 108.99126221 40.17218384 108.99126221 40.91772461 110.04638672 C41.89458028 111.42862856 42.87154911 112.81079044 43.84863281 114.19287109 C46.83810363 118.422485 49.82396417 122.65464887 52.81030273 126.88647461 C55.86142182 131.20968255 58.91550405 135.53077857 61.97143555 139.85058594 C63.4745221 141.9779431 64.97393318 144.10784852 66.47265625 146.23828125 C68.31248733 148.85304119 70.16703641 151.45617036 72.03515625 154.05078125 C72.85823107 155.20691867 73.68115676 156.36316229 74.50390625 157.51953125 C75.21933594 158.5146875 75.93476563 159.50984375 76.671875 160.53515625 C79.38319163 165.04328366 79.38319163 165.04328366 79.31640625 168.26953125 C75.8334657 172.66500223 71.15069961 175.67648566 66.56640625 178.83203125 C65.04937607 179.88917498 63.5324521 180.94647115 62.015625 182.00390625 C61.24009277 182.54208984 60.46456055 183.08027344 59.66552734 183.63476562 C56.61852541 185.75519016 53.58689752 187.89689966 50.55688477 190.04150391 C48.42231236 191.55132925 46.28350615 193.05501505 44.14453125 194.55859375 C41.82123354 196.19541067 39.52486706 197.85414522 37.23828125 199.54296875 C36.3771875 200.17460937 35.51609375 200.80625 34.62890625 201.45703125 C33.92378906 201.98683594 33.21867188 202.51664063 32.4921875 203.0625 C29.70797756 204.60706171 27.49377366 205.11701761 24.31640625 205.26953125 C22.5859375 204.1796875 22.5859375 204.1796875 21.12890625 202.33203125 C20.2471875 201.21828125 20.2471875 201.21828125 19.34765625 200.08203125 C15.90483181 195.31504356 12.56455991 190.48341827 9.26953125 185.61328125 C6.3588472 181.31490056 3.37953622 177.06795563 0.37890625 172.83203125 C-0.11955811 172.12763916 -0.61802246 171.42324707 -1.1315918 170.69750977 C-2.14325866 169.26834509 -3.15522185 167.83939014 -4.16748047 166.41064453 C-6.67703298 162.86655829 -9.17999593 159.31782515 -11.68359375 155.76953125 C-12.68356179 154.35284203 -13.6835618 152.93617537 -14.68359375 151.51953125 C-20.68359375 143.01953125 -20.68359375 143.01953125 -22.18457031 140.89306641 C-23.1812128 139.48121033 -24.17795704 138.06942607 -25.17480469 136.65771484 C-27.72702821 133.04303856 -30.27728851 129.42700207 -32.82421875 125.80859375 C-33.86063617 124.33721076 -34.89709393 122.86585619 -35.93359375 121.39453125 C-36.67851074 120.33576782 -36.67851074 120.33576782 -37.43847656 119.25561523 C-41.00134988 114.20306156 -44.64221906 109.21688983 -48.35546875 104.2734375 C-49.68359375 102.26953125 -49.68359375 102.26953125 -49.68359375 100.26953125 C-50.23144531 100.48609375 -50.77929688 100.70265625 -51.34375 100.92578125 C-61.91142036 104.63735328 -74.38939441 105.13306783 -84.68359375 100.26953125 C-94.59742463 94.55171821 -101.95259532 87.11424207 -105.37109375 76.04296875 C-108.20437033 64.59180924 -106.59105831 53.64643774 -100.55859375 43.45703125 C-94.64366188 34.83316 -86.68614478 29.91400276 -76.875 26.671875 C-73.71480238 26.09166046 -70.64262301 26.17731802 -67.43359375 26.20703125 C-65.53867188 26.22056641 -65.53867188 26.22056641 -63.60546875 26.234375 C-62.64125 26.24597656 -61.67703125 26.25757813 -60.68359375 26.26953125 C-60.44576172 25.3259375 -60.44576172 25.3259375 -60.203125 24.36328125 C-57.5010956 14.45086402 -52.84385874 6.69883094 -44.68359375 0.26953125 C-30.64600459 -7.58529703 -13.88139143 -8.95117381 0 0 Z " fill="#000000" transform="translate(209.68359375,267.73046875)"/>
<path d="M0 0 C1.22009766 -0.02900391 2.44019531 -0.05800781 3.69726562 -0.08789062 C10.6166555 -0.13675106 15.26054519 0.01268819 20.8125 4.3125 C25.11180538 9.90159699 24.95408489 15.81761565 24.875 22.625 C24.87048828 23.36556641 24.86597656 24.10613281 24.86132812 24.86914062 C24.84962175 26.68362899 24.83168898 28.49807534 24.8125 30.3125 C26.62234375 30.24289063 26.62234375 30.24289063 28.46875 30.171875 C30.08330836 30.13432713 31.69789378 30.09793023 33.3125 30.0625 C34.10398437 30.02898437 34.89546875 29.99546875 35.7109375 29.9609375 C41.54027371 29.86537461 46.09171837 30.73688515 50.8125 34.3125 C55.88422087 40.34720585 55.41499331 46.69383044 55.3125 54.3125 C55.33570313 56.03726563 55.33570313 56.03726563 55.359375 57.796875 C55.32848669 64.49963919 54.90331273 68.91322878 50.8125 74.3125 C46.66385942 77.42398044 42.82649156 78.44896963 37.703125 78.41015625 C36.94902344 78.40693359 36.19492187 78.40371094 35.41796875 78.40039062 C34.64066406 78.39201172 33.86335938 78.38363281 33.0625 78.375 C32.26972656 78.37048828 31.47695313 78.36597656 30.66015625 78.36132812 C28.71090492 78.34958565 26.76169262 78.33165146 24.8125 78.3125 C24.83570313 79.38628906 24.85890625 80.46007812 24.8828125 81.56640625 C24.90158624 83.00259715 24.9197847 84.43879565 24.9375 85.875 C24.95425781 86.57947266 24.97101563 87.28394531 24.98828125 88.00976562 C25.03872681 93.48310862 24.84181037 98.9098731 21.15625 103.2734375 C20.5478125 103.74007812 19.939375 104.20671875 19.3125 104.6875 C18.7040625 105.16960937 18.095625 105.65171875 17.46875 106.1484375 C12.61817199 109.55757016 6.78821363 108.5378202 1.0625 108.5625 C-0.70867187 108.5934375 -0.70867187 108.5934375 -2.515625 108.625 C-13.44108033 108.67421376 -13.44108033 108.67421376 -18.1875 105.3125 C-21.90234701 101.29644918 -23.32163854 98.29914277 -23.28515625 92.86328125 C-23.28032227 91.59194336 -23.28032227 91.59194336 -23.27539062 90.29492188 C-23.26701172 89.41384766 -23.25863281 88.53277344 -23.25 87.625 C-23.24548828 86.73232422 -23.24097656 85.83964844 -23.23632812 84.91992188 C-23.22454983 82.71738013 -23.20810164 80.51497401 -23.1875 78.3125 C-24.3940625 78.35890625 -25.600625 78.4053125 -26.84375 78.453125 C-28.45830836 78.49067287 -30.07289378 78.52706977 -31.6875 78.5625 C-32.47898437 78.59601563 -33.27046875 78.62953125 -34.0859375 78.6640625 C-41.37305528 78.78352345 -46.37650538 77.01674799 -51.65625 71.9375 C-54.09210937 66.17097579 -53.76361285 60.50301174 -53.6875 54.3125 C-53.70296875 53.054375 -53.7184375 51.79625 -53.734375 50.5 C-53.68612376 39.11270748 -53.68612376 39.11270748 -49.1875 34.3125 C-45.55911594 31.12392007 -42.52031575 30.18274956 -37.73828125 30.21484375 C-36.89072266 30.21806641 -36.04316406 30.22128906 -35.16992188 30.22460938 C-34.28884766 30.23298828 -33.40777344 30.24136719 -32.5 30.25 C-31.16098633 30.25676758 -31.16098633 30.25676758 -29.79492188 30.26367188 C-27.59238013 30.27545017 -25.38997401 30.29189836 -23.1875 30.3125 C-23.23970703 28.35957031 -23.23970703 28.35957031 -23.29296875 26.3671875 C-23.32111901 24.64063796 -23.34841784 22.91407439 -23.375 21.1875 C-23.40013672 20.3315625 -23.42527344 19.475625 -23.45117188 18.59375 C-23.51124865 13.38709573 -23.12015473 9.80877396 -20.1875 5.3125 C-13.67858428 -0.56139956 -8.49220016 0.06624181 0 0 Z " fill="#000000" transform="translate(369.1875,147.6875)"/>
<path d="M0 0 C4.58342744 0.64957184 7.51516498 3.34298849 11.13671875 6.10546875 C12.74712377 7.30244945 14.35780897 8.49905328 15.96875 9.6953125 C16.79197754 10.3126123 17.61520508 10.92991211 18.46337891 11.56591797 C21.6279215 13.92362963 24.82929053 16.22727346 28.03637695 18.52661133 C31.0036159 20.655386 33.9579329 22.80176213 36.91308594 24.94726562 C38.82616971 26.32909016 40.74947396 27.69529686 42.67578125 29.05859375 C43.76727463 29.84456967 44.85844559 30.63099362 45.94921875 31.41796875 C47.34140625 32.40796875 47.34140625 32.40796875 48.76171875 33.41796875 C51.31887685 35.75594187 52.38918895 36.97778567 52.94921875 40.41796875 C51.75341066 43.06650922 50.60215909 45.07249214 48.94921875 47.41796875 C48.47371582 48.09424316 47.99821289 48.77051758 47.50830078 49.46728516 C45.86877272 51.74203383 44.19497696 53.9879052 42.51171875 56.23046875 C41.25317855 57.9226361 39.99538321 59.61535766 38.73828125 61.30859375 C38.10438477 62.16130859 37.47048828 63.01402344 36.81738281 63.89257812 C33.97636341 67.73307796 31.17848444 71.6040831 28.38671875 75.48046875 C27.85506104 76.21821533 27.32340332 76.95596191 26.77563477 77.71606445 C25.70285764 79.20521107 24.63034703 80.69454974 23.55810547 82.18408203 C20.85909747 85.93156659 18.15382991 89.6745272 15.44921875 93.41796875 C14.36585571 94.91794729 13.28252237 96.41794729 12.19921875 97.91796875 C10.03255208 100.91796875 7.86588542 103.91796875 5.69921875 106.91796875 C5.16224365 107.66151611 4.62526855 108.40506348 4.07202148 109.17114258 C2.99617898 110.6606835 1.92017173 112.15010545 0.84399414 113.6394043 C-1.98035983 117.54843357 -4.80123407 121.45991389 -7.6171875 125.375 C-8.20242187 126.18775391 -8.78765625 127.00050781 -9.390625 127.83789062 C-10.50757402 129.38920871 -11.62352172 130.94124844 -12.73828125 132.49414062 C-13.24488281 133.19732422 -13.75148438 133.90050781 -14.2734375 134.625 C-14.74668457 135.2845166 -15.21993164 135.9440332 -15.70751953 136.62353516 C-16.88968256 138.20276058 -18.1801775 139.69964315 -19.484375 141.1796875 C-21.27481901 143.25207055 -21.27481901 143.25207055 -20.94921875 145.53125 C-19.97404286 147.73683273 -19.97404286 147.73683273 -17.67578125 150.60546875 C-11.51359757 158.97606507 -10.31905529 169.32651186 -11.67578125 179.41796875 C-13.75050872 190.00857107 -18.64629888 197.64620429 -27.05078125 204.41796875 C-37.35903794 211.14788156 -48.04144502 212.40224872 -60.05078125 210.41796875 C-71.0266095 207.78122853 -79.12681865 199.91628371 -84.93359375 190.484375 C-87.30214717 186.10337934 -88.34330118 182.39080762 -88.05078125 177.41796875 C-88.71078125 177.74796875 -89.37078125 178.07796875 -90.05078125 178.41796875 C-101.4615585 179.57914373 -111.93927931 176.27106423 -121.05078125 169.41796875 C-128.77700458 162.55021468 -133.4959532 152.96149623 -134.25390625 142.65625 C-134.46350718 129.57365836 -130.62099486 120.29947559 -121.80078125 110.66796875 C-112.67849532 101.93170383 -102.44019272 101.05799571 -90.515625 101.18359375 C-85.56142349 101.34511004 -81.5856049 102.40249157 -77.05078125 104.41796875 C-76.80972656 103.88429688 -76.56867188 103.350625 -76.3203125 102.80078125 C-74.70938253 99.77718962 -72.74657883 97.05906237 -70.73828125 94.29296875 C-70.30169189 93.68678711 -69.86510254 93.08060547 -69.4152832 92.45605469 C-67.96319251 90.44136457 -66.50698842 88.429685 -65.05078125 86.41796875 C-64.0192759 84.98846547 -62.98803109 83.55877416 -61.95703125 82.12890625 C-59.7741888 79.10267766 -57.58908605 76.07809919 -55.40234375 73.0546875 C-53.20626862 70.01803689 -51.013568 66.97900315 -48.82421875 63.9375 C-42.69890093 55.432341 -36.52241812 46.96790344 -30.29248047 38.5390625 C-26.23707958 33.04603273 -22.22642225 27.52248421 -18.23828125 21.98046875 C-2.83005127 0.5767914 -2.83005127 0.5767914 0 0 Z M0.94921875 14.41796875 C-0.98010973 16.66578955 -2.70529572 18.89170754 -4.42578125 21.29296875 C-5.21480835 22.37022217 -5.21480835 22.37022217 -6.01977539 23.46923828 C-7.70685104 25.7783405 -9.3795 28.09741625 -11.05078125 30.41796875 C-12.12452591 31.8974796 -13.19873827 33.37665114 -14.2734375 34.85546875 C-16.99553137 38.60839512 -19.70438671 42.37068487 -22.40966797 46.13574219 C-25.11717641 49.90095922 -27.83435489 53.65918323 -30.55078125 57.41796875 C-33.79214929 61.90403379 -37.03220087 66.39101716 -40.265625 70.8828125 C-45.92348415 78.73794847 -51.61590907 86.56552746 -57.36328125 94.35546875 C-57.94988525 95.15130371 -58.53648926 95.94713867 -59.14086914 96.76708984 C-61.65711284 100.17951524 -64.17672341 103.58917763 -66.7109375 106.98828125 C-67.44183594 107.97570312 -68.17273438 108.963125 -68.92578125 109.98046875 C-69.54195312 110.80675781 -70.158125 111.63304687 -70.79296875 112.484375 C-72.23254323 114.31293501 -72.23254323 114.31293501 -72.05078125 116.41796875 C-77.39290099 116.86314539 -80.50040645 116.03620616 -85.15625 113.390625 C-90.4046991 110.69606041 -96.09845075 110.70459631 -101.734375 112.06640625 C-109.99775899 114.74828122 -116.43584035 118.79465501 -120.48828125 126.66796875 C-123.69420706 133.85614322 -124.44613441 141.98947409 -122.05078125 149.60546875 C-118.43934395 157.72696391 -112.12515069 163.13347949 -104.05078125 166.41796875 C-96.82902076 168.82522225 -88.47660052 167.36092993 -81.05078125 166.41796875 C-80.39078125 166.41796875 -79.73078125 166.41796875 -79.05078125 166.41796875 C-78.97601563 167.38476562 -78.90125 168.3515625 -78.82421875 169.34765625 C-77.86413688 178.85434923 -76.30103415 186.31958267 -69.16015625 193.25390625 C-62.66976093 198.49221744 -56.00199416 201.06131037 -47.6328125 200.765625 C-39.99607034 199.73737984 -33.10562669 196.25740853 -28.05078125 190.41796875 C-23.38430702 183.5576456 -21.04210595 176.8141251 -22.05078125 168.41796875 C-23.80149828 161.4651211 -26.43830608 155.11641225 -32.05078125 150.41796875 C-32.71078125 150.41796875 -33.37078125 150.41796875 -34.05078125 150.41796875 C-34.53892254 144.62584454 -33.37452853 141.54505297 -29.86328125 137.10546875 C-28.93834574 135.87534299 -28.01389021 134.64485624 -27.08984375 133.4140625 C-26.59516602 132.76679199 -26.10048828 132.11952148 -25.59082031 131.45263672 C-22.90653719 127.906217 -20.3315283 124.28116377 -17.73828125 120.66796875 C-16.62690664 119.12977135 -15.51492162 117.59201481 -14.40234375 116.0546875 C-12.20626862 113.01803689 -10.013568 109.97900315 -7.82421875 106.9375 C-2.2143006 99.14812779 3.43193997 91.38819905 9.13671875 83.66796875 C13.53155717 77.71989591 17.89100756 71.75098456 22.17236328 65.72070312 C24.57087951 62.34318048 26.98678218 58.97911256 29.41796875 55.625 C30.31116821 54.39245483 30.31116821 54.39245483 31.22241211 53.13500977 C32.39653786 51.51616126 33.5717936 49.89813158 34.74829102 48.28100586 C35.27994873 47.54760986 35.81160645 46.81421387 36.359375 46.05859375 C37.07299194 45.07681152 37.07299194 45.07681152 37.80102539 44.07519531 C39.01118821 42.41217791 39.01118821 42.41217791 39.94921875 40.41796875 C38.94246094 39.71414062 37.93570313 39.0103125 36.8984375 38.28515625 C35.47753243 37.28823367 34.05698931 36.29079508 32.63671875 35.29296875 C31.88503418 34.76541992 31.13334961 34.23787109 30.35888672 33.69433594 C26.09437308 30.68646389 21.87220901 27.63251098 17.6953125 24.50390625 C16.84042236 23.86469238 15.98553223 23.22547852 15.10473633 22.56689453 C13.43458336 21.31359498 11.76893847 20.05426243 10.1081543 18.78857422 C9.34672119 18.21768066 8.58528809 17.64678711 7.80078125 17.05859375 C6.79265381 16.29337402 6.79265381 16.29337402 5.76416016 15.51269531 C3.87432932 14.15972216 3.87432932 14.15972216 0.94921875 14.41796875 Z " fill="#000000" transform="translate(252.05078125,38.58203125)"/>
<path d="M0 0 C1.0830542 0.00326294 1.0830542 0.00326294 2.18798828 0.0065918 C4.39405609 0.00975375 6.59878544 -0.01371013 8.8046875 -0.0390625 C10.20182122 -0.04133526 11.59895856 -0.0420391 12.99609375 -0.04101562 C14.27162109 -0.04399658 15.54714844 -0.04697754 16.86132812 -0.05004883 C18.36663086 0.13424683 18.36663086 0.13424683 19.90234375 0.32226562 C21.90234375 3.32226562 21.90234375 3.32226562 21.65234375 6.44726562 C21.40484375 7.39601562 21.15734375 8.34476563 20.90234375 9.32226562 C16.59561433 11.47563033 10.8290937 10.50812041 6.04394531 10.50756836 C3.9106051 10.50975715 1.77778009 10.52792482 -0.35546875 10.546875 C-1.70702948 10.54980856 -3.05859267 10.55179361 -4.41015625 10.55273438 C-5.64378906 10.55684326 -6.87742187 10.56095215 -8.1484375 10.56518555 C-11.09765625 10.32226562 -11.09765625 10.32226562 -13.09765625 8.32226562 C-13.34765625 5.32226562 -13.34765625 5.32226562 -13.09765625 2.32226562 C-9.64921397 -1.12617666 -4.65876392 0.01859579 0 0 Z " fill="#000000" transform="translate(78.09765625,245.677734375)"/>
<path d="M0 0 C4.563319 0.5737351 7.33782679 2.56251686 11.04296875 5.171875 C11.70619141 5.6153125 12.36941406 6.05875 13.05273438 6.515625 C16.37383948 8.78989637 19.33799202 10.84370872 21.35546875 14.421875 C21.23046875 17.046875 21.23046875 17.046875 20.35546875 19.421875 C17.35546875 21.421875 17.35546875 21.421875 15.1484375 21.35546875 C11.19926094 20.03539435 8.07588138 17.84115648 4.66796875 15.484375 C3.99185547 15.02869141 3.31574219 14.57300781 2.61914062 14.10351562 C-0.00534716 12.3199085 -2.39483381 10.67157244 -4.64453125 8.421875 C-4.89453125 5.421875 -4.89453125 5.421875 -4.64453125 2.421875 C-2.64453125 0.421875 -2.64453125 0.421875 0 0 Z " fill="#000000" transform="translate(107.64453125,204.578125)"/>
<path d="M0 0 C2.5625 1.0625 2.5625 1.0625 4.5625 4.0625 C4.51171875 6.49609375 4.51171875 6.49609375 3.5625 9.0625 C1.26953125 11.16015625 1.26953125 11.16015625 -1.625 13.125 C-2.62402344 13.805625 -3.62304688 14.48625 -4.65234375 15.1875 C-5.57144531 15.80625 -6.49054688 16.425 -7.4375 17.0625 C-8.03691406 17.536875 -8.63632813 18.01125 -9.25390625 18.5 C-12.23824515 20.84193353 -13.42617019 21.06323096 -17.3125 20.8125 C-18.34375 20.565 -19.375 20.3175 -20.4375 20.0625 C-20.7675 17.7525 -21.0975 15.4425 -21.4375 13.0625 C-18.46723173 10.68909415 -15.46365302 8.36421032 -12.4375 6.0625 C-11.64859375 5.45664062 -10.8596875 4.85078125 -10.046875 4.2265625 C-4.32148017 0.07857237 -4.32148017 0.07857237 0 0 Z " fill="#000000" transform="translate(124.4375,275.9375)"/>
</svg>
