<svg xmlns="http://www.w3.org/2000/svg" viewBox="0 0 48 48" width="48" height="48">
  <path fill="currentColor" d="M24 4C14.06 4 6 12.06 6 22c0 4.11 1.39 7.9 3.73 10.94.31.42.31.98 0 1.4C7.39 37.38 6 41.17 6 45.28c0 .4.32.72.72.72h34.56c.4 0 .72-.32.72-.72 0-4.11-1.39-7.9-3.73-10.94-.31-.42-.31-.98 0-1.4C40.61 29.9 42 26.11 42 22 42 12.06 33.94 4 24 4zm0 4c7.73 0 14 6.27 14 14s-6.27 14-14 14-14-6.27-14-14S16.27 8 24 8zm0 4c-5.52 0-10 4.48-10 10s4.48 10 10 10 10-4.48 10-10-4.48-10-10-10zm0 4c3.31 0 6 2.69 6 6s-2.69 6-6 6-6-2.69-6-6 2.69-6 6-6z"/>
</svg>