<?xml version="1.0" encoding="UTF-8"?>
<svg version="1.1" xmlns="http://www.w3.org/2000/svg" width="512" height="512">
<path d="M0 0 C1.59236124 2.35940062 2.77688282 4.47511946 3.9765625 7.02661133 C4.33989685 7.76160355 4.7032312 8.49659576 5.07757568 9.25386047 C6.27661806 11.68884274 7.45019946 14.13527414 8.625 16.58203125 C9.45592167 18.27590315 10.28879466 19.96881913 11.12353516 21.66081238 C13.31991226 26.12199738 15.49658682 30.59247264 17.66723633 35.06622314 C21.138058 42.21815671 24.62648222 49.36125808 28.13739014 56.49359703 C29.35840675 58.98566479 30.56368771 61.48491997 31.76806641 63.98506165 C32.51921616 65.5187567 33.27097446 67.05215392 34.0234375 68.58520508 C34.35293396 69.27990906 34.68243042 69.97461304 35.02191162 70.69036865 C37.5304448 75.74480909 40.41519705 78.44911823 45.1875 81.3125 C49.53898639 82.37619667 53.72715302 82.38712713 58 81 C63.37861078 77.30692514 66.49713696 73.15661794 69.28295898 67.34228516 C69.65461685 66.60013763 70.02627472 65.85799011 70.40919495 65.09335327 C71.62017585 62.66586803 72.80816039 60.22789741 73.99609375 57.7890625 C74.83665449 56.09300261 75.67864161 54.39764894 76.52198792 52.70297241 C78.72759573 48.26135122 80.91380718 43.81045734 83.0960083 39.3572998 C85.33028091 34.80661744 87.58291516 30.26504652 89.83398438 25.72265625 C94.240593 16.82388658 98.62674794 7.91520453 103 -1 C107.87695775 -0.41928735 112.39074795 0.23831691 117.11328125 1.64453125 C118.26094971 1.98532715 119.40861816 2.32612305 120.59106445 2.67724609 C122.43317505 3.23919678 122.43317505 3.23919678 124.3125 3.8125 C125.27583755 4.10486542 125.27583755 4.10486542 126.25863647 4.40313721 C217.44278973 32.13828811 217.44278973 32.13828811 231 57 C231.62455078 58.12728516 231.62455078 58.12728516 232.26171875 59.27734375 C242.60685497 79.93498169 245.34355573 104.47281686 247.75 127.125 C247.87785889 128.29023193 248.00571777 129.45546387 248.13745117 130.65600586 C249.20699169 141.56742661 249 151.86684364 249 163 C118.32 163 -12.36 163 -147 163 C-147 147.20096463 -147 147.20096463 -146.484375 140.8203125 C-146.42885971 140.12824707 -146.37334442 139.43618164 -146.31614685 138.72314453 C-146.13577068 136.52295884 -145.94463483 134.32396776 -145.75 132.125 C-145.68342194 131.36298279 -145.61684387 130.60096558 -145.54824829 129.81585693 C-139.59174353 62.54744922 -139.59174353 62.54744922 -116.6484375 42.99609375 C-111.43294042 39.06523975 -105.78261491 35.99451794 -100 33 C-99.33838867 32.65356445 -98.67677734 32.30712891 -97.99511719 31.95019531 C-72.18432352 18.61156766 -43.74429454 10.3207157 -16 2 C-14.91638184 1.66613281 -13.83276367 1.33226562 -12.71630859 0.98828125 C-11.75160645 0.70339844 -10.7869043 0.41851562 -9.79296875 0.125 C-8.97723389 -0.11992187 -8.16149902 -0.36484375 -7.32104492 -0.6171875 C-4.37151987 -1.10365592 -2.83075398 -1.04716711 0 0 Z " fill="#000000" transform="translate(255,323)"/>
<path d="M0 0 C1.04795242 -0.00832352 2.09590485 -0.01664703 3.1756134 -0.02522278 C6.63371518 -0.04928139 10.09162814 -0.05809029 13.54980469 -0.06469727 C15.96108048 -0.07366726 18.37235571 -0.08278917 20.78363037 -0.09205627 C25.8373754 -0.10853796 30.89105424 -0.11624482 35.94482422 -0.11914062 C42.40539483 -0.12452113 48.86533924 -0.16219211 55.32573318 -0.20788479 C60.30674484 -0.23769852 65.28760654 -0.24486515 70.26869965 -0.24586678 C72.64963395 -0.25006103 75.03056902 -0.26246314 77.4114151 -0.28338432 C80.74999896 -0.31038456 84.08714221 -0.30544628 87.42578125 -0.29296875 C88.39963272 -0.30780304 89.37348419 -0.32263733 90.37684631 -0.33792114 C99.0441198 -0.24615964 105.82396909 2.72382254 112.28417969 8.49389648 C125.15478531 22.63642078 124.65107002 45.30326293 126.47167969 63.30639648 C126.54660645 64.0332666 126.6215332 64.76013672 126.69873047 65.5090332 C128.00150852 78.7139915 127.5655318 92.05592148 127.47167969 105.30639648 C122.95120997 104.34007148 118.45488189 103.32694211 113.99121094 102.12280273 C91.16281812 95.99911478 68.16672822 94.0857905 44.59667969 94.11889648 C43.7341861 94.11983307 42.8716925 94.12076965 41.98306274 94.12173462 C15.91666291 94.18296938 -10.4762463 95.96640374 -35.30566406 104.60717773 C-37.52832031 105.30639648 -37.52832031 105.30639648 -40.52832031 105.30639648 C-41.0852222 84.20600269 -39.32366608 63.09866953 -36.65332031 42.18139648 C-36.50411133 40.96814697 -36.35490234 39.75489746 -36.20117188 38.50488281 C-34.38036458 25.08806504 -31.17288483 12.89816683 -19.96582031 4.36889648 C-13.77019771 0.0582264 -7.2627274 0.00491608 0 0 Z " fill="#000000" transform="translate(262.5283203125,23.693603515625)"/>
<path d="M0 0 C15.18 0 30.36 0 46 0 C46.11029529 30.53177384 46.20258974 61.06336395 46.25532665 91.59527384 C46.26157994 95.20251364 46.26805157 98.80975302 46.2746582 102.41699219 C46.27596976 103.13510724 46.27728131 103.8532223 46.2786326 104.59309842 C46.30036979 116.20998996 46.33978193 127.82675738 46.38576398 139.44357537 C46.43257574 151.36976679 46.46030534 163.29589334 46.47044247 175.22217286 C46.47667839 181.91840467 46.49225914 188.61433789 46.52865028 195.31048203 C46.56263923 201.61581767 46.5730468 207.92075675 46.56553841 214.22617531 C46.56691162 216.53762913 46.57682632 218.84909649 46.59602737 221.16047096 C46.62101003 224.32351782 46.61488531 227.48507956 46.60127258 230.64816284 C46.61583679 231.55675297 46.630401 232.46534309 46.64540654 233.40146625 C46.56698328 240.1715324 44.64453255 245.29554687 41 251 C38.61328125 253.25390625 38.61328125 253.25390625 36.3125 254.5625 C35.54550781 255.01753906 34.77851562 255.47257813 33.98828125 255.94140625 C27.86617891 259.20091457 20.20358976 259.09372398 13.5078125 257.3515625 C7.8840452 254.79132603 3.808928 250.41746145 0.93837166 244.99435139 C-0.40267146 240.71507218 -0.26853135 236.67068386 -0.24050903 232.21147156 C-0.24221788 231.21897976 -0.24392673 230.22648797 -0.24568737 229.20392066 C-0.24898415 225.87505032 -0.23797532 222.5463811 -0.22705078 219.2175293 C-0.22648671 216.8325857 -0.22680315 214.44764176 -0.22793579 212.06269836 C-0.22845077 206.25670819 -0.21977455 200.450784 -0.20706047 194.64480891 C-0.19275986 187.88837953 -0.18976983 181.13195951 -0.18748413 174.37551711 C-0.18310812 162.32674682 -0.16980157 150.27800363 -0.15087891 138.22924805 C-0.13251767 126.5257989 -0.11836236 114.82235712 -0.10986328 103.11889648 C-0.10933783 102.39735717 -0.10881239 101.67581786 -0.10827102 100.93241372 C-0.10566092 97.31262169 -0.10313351 93.69282962 -0.10064721 90.07303751 C-0.07991764 60.04866798 -0.04304946 30.0243482 0 0 Z " fill="#000000" transform="translate(8,230)"/>
<path d="M0 0 C1.65798111 -0.00855011 1.65798111 -0.00855011 3.34945679 -0.01727295 C5.6841335 -0.02667464 8.01882319 -0.03323758 10.35351562 -0.03710938 C13.84009599 -0.04671428 17.32606004 -0.077743 20.8125 -0.109375 C40.39567533 -0.20306194 59.68725943 1.27830186 78.7109375 6.140625 C80.22397461 6.49930664 80.22397461 6.49930664 81.76757812 6.86523438 C87.93259452 8.38543035 93.57362703 10.40354627 99.2734375 13.203125 C101.34077796 33.23247352 101.34077796 33.23247352 97.09375 38.76171875 C94.50085848 41.13108514 91.99314198 43.12993866 89.05712891 45.03076172 C87.23486042 46.22848048 85.53244313 47.51854207 83.81640625 48.86328125 C74.94269519 55.71110497 64.897225 62.96390938 53.2734375 62.203125 C50.48260297 61.81761461 47.7252571 61.3074014 44.9609375 60.765625 C35.45193652 58.92375178 26.08800851 58.00632688 16.3984375 58.015625 C15.5014917 58.01643066 14.6045459 58.01723633 13.68041992 58.01806641 C1.61720916 58.12559481 -10.82064834 58.88442318 -22.55859375 61.8359375 C-29.01153016 62.92886727 -33.6402251 61.82457106 -39.3515625 58.828125 C-40.04523926 58.47161865 -40.73891602 58.1151123 -41.45361328 57.74780273 C-47.34303335 54.61428601 -52.62793708 50.95096282 -57.73046875 46.6640625 C-60.63931538 44.16842443 -60.63931538 44.16842443 -63.75390625 42.3046875 C-67.59807642 39.66283142 -70.25326391 37.56000782 -71.20751953 32.80810547 C-71.79950501 26.87871962 -72.39191725 19.97945108 -70.7265625 14.203125 C-67.06472002 10.76336258 -62.75243712 9.66985439 -58.0390625 8.265625 C-56.74282959 7.8775769 -56.74282959 7.8775769 -55.42041016 7.48168945 C-37.53128719 2.38520395 -18.57420466 0.07646017 0 0 Z " fill="#000000" transform="translate(291.7265625,124.796875)"/>
<path d="M0 0 C0.72993164 0.07524902 1.45986328 0.15049805 2.21191406 0.22802734 C7.48008746 0.80642835 12.13124558 1.38652201 16.23046875 4.92578125 C24.43658411 15.61647738 27.2311896 29.90252101 29 43 C29.10924805 43.77021484 29.21849609 44.54042969 29.33105469 45.33398438 C31.06452678 58.44436713 31.06452678 58.44436713 28.91796875 63.59765625 C27.12344747 65.79387085 25.28361618 67.31794043 23 69 C22.14921875 69.72058594 21.2984375 70.44117188 20.421875 71.18359375 C5.95319538 82.90480552 -13.10498547 91.98295282 -32 91 C-34.65075909 90.51975114 -37.15823694 89.9978266 -39.75 89.3125 C-40.44246826 89.13243408 -41.13493652 88.95236816 -41.84838867 88.7668457 C-58.12518229 84.37141672 -75.38120962 75.42818557 -85 61 C-87.70952442 43.33530835 -81.50568767 21.99967092 -72.625 6.98828125 C-68.49107684 1.93018777 -63.31027228 1.24440782 -57.1875 0.375 C-55.9336853 0.18780396 -55.9336853 0.18780396 -54.65454102 -0.00317383 C-36.2740069 -2.62796914 -18.38778873 -2.13803251 0 0 Z " fill="#000000" transform="translate(334,191)"/>
<path d="M0 0 C3.77264057 1.43036311 4.00779165 2.12182761 5.7109375 5.6328125 C6.54055388 7.58410668 7.34227423 9.54741247 8.12109375 11.51953125 C8.5493042 12.55682373 8.97751465 13.59411621 9.41870117 14.6628418 C14.63008806 27.45371817 19.21925289 40.42087206 22.99609375 53.70703125 C23.28867065 54.728573 23.28867065 54.728573 23.5871582 55.77075195 C26.57460092 66.7282227 27.54770017 77.42992799 27.49609375 88.76953125 C27.49236252 89.75954636 27.49236252 89.75954636 27.48855591 90.76956177 C27.38413833 108.77142394 23.85246086 125.40065651 19.69702148 142.83374023 C16.52777763 156.31278148 15.1720339 169.3688691 14.18359375 183.20703125 C1.64359375 183.20703125 -10.89640625 183.20703125 -23.81640625 183.20703125 C-24.02009851 163.90849577 -24.18566162 144.61083963 -24.2827158 125.3114996 C-24.32899106 116.34911873 -24.39200289 107.38745649 -24.49536133 98.42553711 C-24.58547665 90.60812015 -24.64322626 82.79122394 -24.6632027 74.97330195 C-24.67486825 70.83900169 -24.70199436 66.70619027 -24.76797676 62.57237053 C-25.26364692 30.28674708 -25.26364692 30.28674708 -14.81640625 18.20703125 C-13.7801755 16.51328396 -12.77253859 14.80095408 -11.8203125 13.05859375 C-11.40716797 12.34445313 -10.99402344 11.6303125 -10.56835938 10.89453125 C-9.74489703 9.46665566 -8.92480593 8.03683253 -8.10742188 6.60546875 C-4.46304553 0.32807408 -4.46304553 0.32807408 0 0 Z " fill="#000000" transform="translate(35.81640625,39.79296875)"/>
<path d="M0 0 C3.62681488 1.41308516 7.06346572 3.02514156 10.52026367 4.81811523 C28.39721046 14.06967562 46.0178087 18.43893575 65.66601562 12.34790039 C72.27997348 10.11177467 78.45815373 7.04761658 84.609375 3.76953125 C87.38320311 2.32189976 90.09156987 1.13053894 93 0 C99.74813105 32.72980161 89.07942147 57.03160799 74.3125 85.5625 C73.86827446 86.42463608 73.42404892 87.28677216 72.966362 88.17503357 C69.96015934 93.99874773 66.90418439 99.79392774 63.80078125 105.56640625 C63.39311964 106.3275001 62.98545803 107.08859394 62.56544304 107.87275124 C61.4091531 110.01742585 60.23632788 112.1519768 59.0559082 114.28344727 C58.71856848 114.90911465 58.38122875 115.53478203 58.03366661 116.17940903 C55.87776265 120.00677702 53.63215262 122.52962293 50 125 C47.9375 125.56640625 47.9375 125.56640625 46 125.5625 C45.360625 125.58441406 44.72125 125.60632813 44.0625 125.62890625 C38.57798518 123.95654472 35.62885101 118.127015 33.03588867 113.36938477 C32.67438123 112.71994715 32.31287378 112.07050953 31.94041157 111.40139198 C30.75326306 109.25489002 29.58309943 107.09993402 28.41796875 104.94140625 C28.01358078 104.19310358 27.60919281 103.44480091 27.19255066 102.6738224 C24.1381316 96.99721083 21.15007801 91.28749523 18.1875 85.5625 C17.75499058 84.72990913 17.32248116 83.89731827 16.87686539 83.03949738 C2.47947312 55.22023423 -6.11594917 31.75207539 0 0 Z " fill="#000000" transform="translate(260,273)"/>
<path d="M0 0 C-0.63975713 24.69462503 -6.01563527 49.72774288 -19 71 C-19.66 71 -20.32 71 -21 71 C-21.25523437 69.07800781 -21.25523437 69.07800781 -21.515625 67.1171875 C-23.53324824 52.46668526 -26.11499919 39.45735433 -33.609375 26.546875 C-35 24 -35 24 -35 22 C-34.11699219 21.5875 -33.23398437 21.175 -32.32421875 20.75 C-24.23623975 16.89005987 -17.07884766 12.55033691 -10 7 C-9.12730469 6.319375 -8.25460937 5.63875 -7.35546875 4.9375 C-5.79116006 3.71561478 -4.23183388 2.48729818 -2.6796875 1.25 C-1 0 -1 0 0 0 Z " fill="#000000" transform="translate(391,170)"/>
<path d="M0 0 C1.03125 0.78375 2.0625 1.5675 3.125 2.375 C4.74844916 3.58541616 6.37371272 4.79339976 8 6 C8.5146582 6.38575195 9.02931641 6.77150391 9.55957031 7.16894531 C17.38763401 13.01591732 25.0578544 17.97112121 34 22 C33.40231656 25.22749058 32.10352389 27.90756845 30.62573242 30.82080078 C24.24229198 43.52123941 21.85054004 56.99920367 20 71 C16.04029731 67.59465569 14.19050552 63.87259598 12.125 59.1875 C11.78130371 58.40922852 11.43760742 57.63095703 11.08349609 56.82910156 C3.56066159 39.03262346 -0.63683567 19.31734865 0 0 Z " fill="#000000" transform="translate(222,170)"/>
</svg>
